<?xml version="1.0" encoding="UTF-8"?>
<svg id="Livello_1" data-name="Livello 1" xmlns="http://www.w3.org/2000/svg" viewBox="0 0 491.11 83.49">
  <defs>
    <style>
      .cls-1 {
        fill: #FFF;
        stroke-width: 0px;
      }
    </style>
  </defs>
  <path class="cls-1" d="M22.52.03c-1.19,0-2.16,1.06-2.16,2.38v.18c0,1.2.88,2.17,1.97,2.16,11.55-.1,69.86,1.01,65,34.1-4.72,32.16-28.03,36.15-47.74,36.64-.94.02-1.12-1.47-.2-1.71,7.91-2.09,19.75-6.13,25.86-12.65,3.06-3.27.88-9.01-3.38-9.01h-31.2c-.63,0-1.14.57-1.14,1.26,0,.94.69,1.71,1.55,1.71h2.97c3.46,0,5.45,4.45,3.26,7.4-3.41,4.59-11.2,9.63-28.97,9.63,0,0-4.31-.99.36-6.93,4.67-5.94,46.5-28.72,48.21-47,.85-9.13-33.59-8.78-42.76-8.52-1.24.03-2.22,1.15-2.22,2.51,0,1.5,1.1,2.71,2.46,2.71h4.17c1.44,0,2.4,1.63,1.82,3.09L.45,67.46c-1.53,3.81.99,8.09,4.77,8.09h13.14c1.44,0,2.34,1.72,1.62,3.1l-.26.5c-.99,1.89.24,4.25,2.22,4.25h34.33s45.97-2.97,57.46-40.8C125.07,5.27,77.46.15,22.52.03Z"/>
  <path class="cls-1" d="M140.49.02h-22.76c-1.24,0-2.33,1.01-2.31,2.25.02,1.38,1.15,2.5,2.54,2.5h9.51c3.49,0,5.8,3.62,4.33,6.78l-25.92,55.8c-1.77,3.82,1.01,8.19,5.23,8.19h24.83c1.78,0,3.37-1.3,3.55-3.07.2-2.03-1.39-3.74-3.37-3.74h-15.7c-1.79,0-2.65-2.19-1.35-3.41l13.8-12.92c2.11-1.97,4.88-3.07,7.77-3.07h2.73c3.8,0,7.38,1.5,10.26,3.98,1.87,1.61,4.31,2.59,6.98,2.59,3.33,0,6.31-1.52,8.27-3.91,1.42-1.73,3.59-2.66,5.83-2.66,3.06,0,5.21,3.08,4.08,5.92-9.74,24.63-37.1,24.38-37.1,24.38h-10.98c-1,0-1.88.78-1.89,1.78-.01,1.09.87,1.98,1.96,1.98h22.67c4.86,0,9.69-.75,14.31-2.24,13.64-4.38,38.8-16.25,40.67-44.5C210.99-2.23,140.49.02,140.49.02ZM177.3,39.75c-3.42.81-6.98-.17-9.6-2.52-1.89-1.69-4.38-2.71-7.11-2.71-3.29,0-6.24,1.49-8.2,3.83-1.76,2.11-4.31,3.41-7.06,3.38-.05,0-.11,0-.16,0-1.63-.02-2.45-1.98-1.31-3.15,5.77-5.93,16.85-18.73,10.79-24-8.68-7.56-3.12-9.51,3.56-9.51s30-.45,33.27,19.31c1.46,8.8-5.02,13.19-14.18,15.36Z"/>
  <path class="cls-1" d="M235.32.11h-22.76c-1.24,0-2.33,1.01-2.31,2.25.02,1.38,1.15,2.5,2.54,2.5h9.51c3.49,0,5.8,3.62,4.33,6.78l-25.92,55.8c-1.77,3.82,1.01,8.19,5.23,8.19h24.83c1.78,0,3.37-1.3,3.55-3.07.2-2.03-1.39-3.74-3.37-3.74h-15.7c-1.79,0-2.65-2.19-1.35-3.41l13.8-12.92c2.11-1.97,4.88-3.07,7.77-3.07h2.73c3.8,0,7.38,1.5,10.26,3.98,1.87,1.61,4.31,2.59,6.98,2.59,3.33,0,6.31-1.52,8.27-3.91,1.42-1.73,3.59-2.66,5.83-2.66,3.06,0,5.21,3.08,4.08,5.92-9.74,24.63-37.1,24.38-37.1,24.38h-10.98c-1,0-1.88.78-1.89,1.78-.01,1.09.87,1.98,1.96,1.98h22.67c4.86,0,9.69-.75,14.31-2.24,13.64-4.38,38.8-16.25,40.67-44.5C305.82-2.14,235.32.11,235.32.11ZM272.13,39.83c-3.42.81-6.98-.17-9.6-2.52-1.89-1.69-4.38-2.71-7.11-2.71-3.29,0-6.24,1.49-8.2,3.83-1.76,2.11-4.31,3.41-7.06,3.38-.05,0-.11,0-.16,0-1.63-.02-2.45-1.98-1.31-3.15,5.77-5.93,16.85-18.73,10.79-24-8.68-7.56-3.12-9.51,3.56-9.51s30-.45,33.27,19.31c1.46,8.8-5.02,13.19-14.18,15.36Z"/>
  <path class="cls-1" d="M390.18,57.9c.37-.74-.15-1.63-.98-1.63-1.28,0-2.56.25-3.74.75l-26.39,11.09c-3.06,1.28-6.59.17-8.36-2.64l-2.28-3.61c-.79-1.26.48-2.8,1.87-2.25,6.53,2.61,20.43,5.23,32.48-3.33,8.05-5.72,10.94-11.31,12.72-16.58,3.04-9,.41-19.08-6.89-25.16C369.81-1.11,330.38.15,330.38.15h-22.76c-1.24,0-2.33,1.01-2.31,2.25.02,1.38,1.15,2.5,2.54,2.5h9.51c3.49,0,5.8,3.62,4.33,6.78l-25.92,55.8c-1.77,3.82-7.54,16,5.23,16h22c2.51,0,2.88-1.21,2.92-1.73v-.38c-.03-.42-.33-1.66-2.98-1.66h-15.4c-7.91-.07-4.22-8.78,1.42-14.27,0,0,5.86-5.89,13.22-13.97,2.13-2.35,5.94-1.9,7.46.89l8.53,15.62c2.55,4.66,7.43,7.56,12.74,7.56h19.23c6.83,0,13.08-3.85,16.16-9.95l3.89-7.71ZM338.54,47.26c-4.04-2.01-4.96-7.39-1.91-10.72,2.02-2.21,4.13-4.58,5.18-5.98,2.5-3.54,4.36-6.78,5.13-9.34.7-2.6.45-4.91-1.4-6.52-8.68-7.56-3.12-9.51,3.56-9.51.08,0,.17,0,.26,0h0c1.32,0,3,.02,4.89.14.96.09,2.01.18,3.2.28,1.64.19,3.37.47,5.11.87,13.98,3.62,22.14,16.8,13.08,31.41-6.38,10.28-16.74,12.31-23.51,12.41h0c-.82-.01-1.58-.05-2.26-.1-4.76-.42-8.46-1.51-11.35-2.95Z"/>
  <path class="cls-1" d="M482.95,14.45C464.14-1.18,424.73.08,424.73.08h-22.76c-1.21,0-2.28.93-2.31,2.15-.04,1.43,1.11,2.6,2.54,2.6h9.51c3.49,0,5.8,3.62,4.33,6.78l-22.71,48.88-4.68,9.61-5.89,11.98c-.32.64.15,1.4.87,1.4h.13c.81,0,1.58-.34,2.12-.95l25.45-28.4c1.23-1.38,2.56-2.67,4.02-3.8,5.63-4.37,9.54-4.36,15.15.58,5.03,4.43,9.71,7.01,13.39,8.51,0,0,14.93,6.91,29.67-1.03.02-.01.04-.02.06-.03.18-.09.35-.19.53-.29.04-.02.07-.04.11-.06.97-.54,1.93-1.14,2.88-1.81,8.05-5.72,10.94-11.31,12.72-16.59,3.06-9.04.43-19.07-6.91-25.16ZM470.01,37.83c-7.52,12.13-20.59,12.77-26.77,12.31-4.76-.42-8.46-1.51-11.35-2.95-4.04-2.01-4.96-7.39-1.91-10.72,2.02-2.21,4.13-4.59,5.18-5.98,2.5-3.54,4.36-6.78,5.13-9.34.7-2.6.45-4.91-1.4-6.52-8.68-7.56-3.12-9.51,3.56-9.51,1.42,0,3.59-.02,6.16.14.96.09,2.01.18,3.2.28,1.64.19,3.37.47,5.11.87,13.98,3.62,22.14,16.8,13.08,31.41Z"/>
</svg>